<svg width="119" height="30" viewBox="0 0 119 30" fill="none" xmlns="http://www.w3.org/2000/svg">
<path d="M89.1177 26.4707V11.8676H93.7556V13.2095C94.1145 12.6306 95.412 11.4729 97.731 11.4729C100.05 11.4729 101.403 12.7359 101.789 13.3674C103.031 11.6308 105.13 11.4466 106.344 11.4729C110.734 11.4729 112.059 15.2618 112.059 17.3931V26.4707H107.421V17.6299C107.421 17.0773 107.123 15.4986 105.268 15.4986C103.412 15.4986 102.866 17.0773 102.866 17.9456V26.4707H98.2279V17.6299C98.2279 16.6037 97.7807 15.4986 95.9917 15.4986C94.2028 15.4986 93.7556 17.0773 93.7556 17.9456V26.4707H89.1177Z" fill="#076787"/>
<path d="M15 14.961V7.94116H0V22.0588H7.54098V14.961H15Z" fill="#076787"/>
<rect x="7.05957" y="22.0588" width="7.94117" height="7.94117" fill="#076787"/>
<rect x="22.0596" y="22.0588" width="7.94117" height="7.94117" fill="#076787"/>
<path fill-rule="evenodd" clip-rule="evenodd" d="M15 0H29.918V7.54098H15V0ZM37.2948 14.9182H37.2952V22.4592H29.9182V15.0824H22.3768V7.54144H37.2948V14.9182Z" fill="#076787"/>
<path d="M49.8133 13.4517L45.9961 5.29419H40.5884L47.5071 18.3132V26.4706H52.1991V18.3132L59.1178 5.29419H53.7101L49.8133 13.4517Z" fill="#076787"/>
<path d="M72.353 19.4119C72.353 23.7977 68.7977 27.353 64.4119 27.353C60.0261 27.353 56.4707 23.7977 56.4707 19.4119C56.4707 15.0261 60.0261 11.4707 64.4119 11.4707C68.7977 11.4707 72.353 15.0261 72.353 19.4119ZM60.8727 19.4119C60.8727 21.3665 62.4572 22.9511 64.4119 22.9511C66.3665 22.9511 67.8152 21.3665 67.8152 19.4119C67.8152 17.4572 66.3665 15.8727 64.4119 15.8727C62.4572 15.8727 60.8727 17.4572 60.8727 19.4119Z" fill="#076787"/>
<path d="M88.2354 19.4119C88.2354 23.7977 84.68 27.353 80.2942 27.353C75.9084 27.353 72.353 23.7977 72.353 19.4119C72.353 15.0261 75.9084 11.4707 80.2942 11.4707C84.68 11.4707 88.2354 15.0261 88.2354 19.4119ZM76.755 19.4119C76.755 21.3665 78.3395 22.9511 80.2942 22.9511C82.2489 22.9511 83.6976 21.3665 83.6976 19.4119C83.6976 17.4572 82.2489 15.8727 80.2942 15.8727C78.3395 15.8727 76.755 17.4572 76.755 19.4119Z" fill="#076787"/>
<rect x="112.941" y="11.4707" width="5.29411" height="15" fill="#076787"/>
<ellipse cx="115.588" cy="7.94125" rx="2.64706" ry="2.64706" fill="#076787"/>
</svg>
