<svg width="300" height="322" viewBox="0 0 300 322" fill="none" xmlns="http://www.w3.org/2000/svg">
<path d="M143.917 40.9102H161.447V61.3824H143.917V40.9102Z" fill="#F58D79"/>
<path d="M157.868 46.4239C157.868 46.4239 147.255 50.6841 147.367 56.0312C147.48 61.3784 145.371 60.7593 145.371 60.7593L143.917 58.1711V43.6699L158.365 44.8398L157.873 46.4288L157.868 46.4239Z" fill="#F37260"/>
<path d="M157.997 46.8812L157.408 62.0112L161.575 59.7544L161.447 44.8486L157.997 46.8812Z" fill="#F9B5A9"/>
<path d="M172.068 21.257C173.496 19.1464 174.95 14.1112 170.24 8.02803C170.138 7.89642 170.056 7.75507 170 7.59909C169.472 6.18066 165.648 0 151.021 0C136.394 0 133.358 7.26763 132.718 8.74456C132.652 8.90054 132.601 9.05164 132.488 9.18325C131.602 10.2117 126.954 14.2916 131.802 22.3098C132.114 22.8265 132.698 23.1482 133.322 23.1482H168.72C169.314 23.1482 171.746 21.7347 172.068 21.257Z" fill="#BCBEC0"/>
<path d="M131.819 22.1486C131.819 22.1486 132.383 23.2795 133.903 22.987L134.174 11.2106C134.174 11.2106 140.743 13.0629 150.675 13.1262C150.675 13.1262 143.825 10.8694 143.103 5.41503C142.376 -0.0344763 146.385 0.116628 146.385 0.116628C146.385 0.116628 135.49 1.58868 132.505 9.02204C132.505 9.02204 126.505 13.7014 131.819 22.1486Z" fill="#939598"/>
<path d="M168.149 22.6453C168.149 22.6453 171.369 19.3698 174.697 21.5486C178.286 23.898 175.552 33.52 167.919 32.2039L168.149 22.6453Z" fill="#F9B5A9"/>
<path d="M171.422 28.2214C170.904 28.2214 170.485 27.4358 170.485 26.4667C170.485 25.4976 170.904 24.7119 171.422 24.7119C171.939 24.7119 172.359 25.4976 172.359 26.4667C172.359 27.4358 171.939 28.2214 171.422 28.2214Z" fill="#F27386"/>
<path d="M162.49 9.57812C162.49 9.57812 162.848 19.0295 168.249 20.2968C168.249 20.2968 168.26 36.2115 167.374 38.9899C166.759 40.9055 158.512 49.1821 148.877 49.1821C138.76 49.1821 135.207 41.3685 134.285 37.9858C133.364 34.603 133.103 19.3512 133.103 19.3512C133.103 19.3512 133.912 14.5451 133.912 10.9137C133.912 10.9137 137.583 12.7513 147.981 12.7513C158.379 12.7513 162.495 9.57812 162.495 9.57812H162.49Z" fill="#F8A38E"/>
<path d="M149.139 19.4925C152.933 19.161 156.501 19.3316 160.243 19.8288C156.946 18.0058 152.549 17.8255 149.139 19.4925Z" fill="#3C1B4E"/>
<path d="M140.968 19.4932C138.848 17.8213 135.362 18.0357 133.391 19.8295C135.976 19.3469 138.306 19.1568 140.968 19.4932Z" fill="#3C1B4E"/>
<path d="M152.684 28.6897C151.575 28.6897 150.677 27.2167 150.677 25.3996C150.677 23.5824 151.575 22.1094 152.684 22.1094C153.792 22.1094 154.691 23.5824 154.691 25.3996C154.691 27.2167 153.792 28.6897 152.684 28.6897Z" fill="#3C1B4E"/>
<path d="M153.255 27.0187C152.605 27.0187 152.078 26.1523 152.078 25.0835C152.078 24.0148 152.605 23.1484 153.255 23.1484C153.906 23.1484 154.433 24.0148 154.433 25.0835C154.433 26.1523 153.906 27.0187 153.255 27.0187Z" fill="white"/>
<path d="M137.783 28.6897C136.675 28.6897 135.776 27.2167 135.776 25.3996C135.776 23.5824 136.675 22.1094 137.783 22.1094C138.892 22.1094 139.79 23.5824 139.79 25.3996C139.79 27.2167 138.892 28.6897 137.783 28.6897Z" fill="#3C1B4E"/>
<path d="M150.865 40.9102C150.865 40.9102 145.735 44.1077 139.873 40.9102" stroke="#3C1B4E" stroke-width="2" stroke-miterlimit="10" stroke-linecap="round"/>
<path d="M144.681 23.8652L141.107 30.0946C140.631 30.9233 141.415 31.8202 142.792 32.0346L144.681 32.3271V23.8701V23.8652Z" fill="#F37260"/>
<path d="M138.361 26.6183C137.71 26.6183 137.183 25.7519 137.183 24.6832C137.183 23.6144 137.71 22.748 138.361 22.748C139.011 22.748 139.538 23.6144 139.538 24.6832C139.538 25.7519 139.011 26.6183 138.361 26.6183Z" fill="white"/>
<path d="M156.807 24.538C157.545 24.4064 158.297 24.3235 159.004 24.1139C159.229 24.0116 159.449 23.8897 159.644 23.6947L159.628 23.646C159.086 23.5339 158.62 23.6801 158.154 23.9043C157.693 24.0847 157.238 24.2797 156.787 24.4893L156.802 24.538H156.807Z" fill="#F37260"/>
<path d="M157.081 25.2202C157.833 25.3567 158.581 25.5517 159.338 25.6053C159.594 25.5907 159.85 25.5565 160.116 25.4444V25.3957C159.645 25.0984 159.144 25.0691 158.616 25.113C158.11 25.1178 157.598 25.1373 157.086 25.1715V25.2202H157.081Z" fill="#F37260"/>
<path d="M156.839 26.122C157.49 26.4534 158.13 26.8385 158.81 27.0871C159.051 27.1407 159.302 27.1748 159.578 27.1358L159.599 27.092C159.256 26.6874 158.8 26.5217 158.293 26.4242C157.822 26.2975 157.341 26.1805 156.86 26.0732L156.839 26.1171V26.122Z" fill="#F37260"/>
<path d="M135.132 24.4452C134.804 24.1625 134.502 23.831 134.134 23.6214C134.042 23.5971 133.699 23.5142 133.617 23.6409C133.714 23.987 133.949 24.1332 134.272 24.2112C134.543 24.3136 134.825 24.4062 135.106 24.4891L135.132 24.4452Z" fill="#F37260"/>
<path d="M134.963 25.1229C134.553 25.0986 134.128 25.0157 133.734 25.0742C133.647 25.1083 133.36 25.2497 133.376 25.3959C133.663 25.6055 133.918 25.586 134.2 25.4544C134.461 25.3764 134.717 25.2789 134.968 25.1717L134.963 25.1229Z" fill="#F37260"/>
<path d="M135.076 26.0293C134.666 26.2145 134.216 26.3608 133.858 26.6142C133.796 26.6825 133.576 26.9652 133.668 27.0822C134.052 27.126 134.288 26.97 134.492 26.7117C134.707 26.507 134.907 26.2925 135.107 26.0683L135.076 26.0293Z" fill="#F37260"/>
<path d="M144.681 23.8652L142.792 32.0346L144.681 32.3271H146.657L144.681 23.8652Z" fill="#F9B5A9"/>
<path d="M167.944 27.3397L168.246 20.2963C168.246 20.2963 163.515 20.2281 162.486 9.57766C162.486 9.57766 166.689 6.16562 170.232 8.02762C170.232 8.02762 175.746 13.8378 172.357 20.774L171.015 21.0762C170.114 21.2809 169.469 22.0267 169.428 22.909L169.295 25.9993L167.939 27.3397H167.944Z" fill="#E0E0E0"/>
<path d="M165 17.9863L164.559 28.2224C164.559 28.2224 163.008 29.6945 161.447 29.7579C161.447 29.7579 163.008 29.5093 163.223 30.5085C163.438 31.5077 164.344 42.9965 160.238 45.5556C160.238 45.5556 165.44 42.709 167.37 38.9898C167.37 38.9898 168.317 28.51 168.245 20.2968L165 17.9863Z" fill="#F9B5A9"/>
<path d="M186.681 155.058L186.425 162.272L185.805 179.624C185.805 179.624 183.701 191.323 170.359 191.323C157.018 191.323 156.659 183.597 156.659 183.597L152.978 183.802C152.978 183.802 151.222 191.323 138.587 191.323C125.952 191.323 123.668 181.214 123.668 181.214L122.701 154.059L186.681 155.063V155.058Z" fill="#414042"/>
<path d="M185.277 159.352C185.277 159.352 173.317 165.766 154.19 165.752C146.162 165.747 122.883 159.352 122.883 159.352H185.277Z" fill="#231F20"/>
<path d="M186.113 170.923L183.523 245.13C183.523 245.13 181.239 250.311 173.166 250.311C165.092 250.311 163.863 245.466 163.863 245.466L155.175 175.442C155.175 175.442 157.131 165.747 169.833 163.577C182.535 161.408 186.118 170.923 186.118 170.923H186.113Z" fill="#414042"/>
<path d="M156.653 183.597C156.653 183.597 158.808 186.141 163.262 186.477L167.732 234.441C167.732 234.441 163.278 237.122 163.278 240.797C163.278 240.797 163.278 244.472 163.278 240.797L156.653 183.597Z" fill="#231F20"/>
<path d="M123.255 171.259L125.845 245.466C125.845 245.466 128.128 250.647 136.202 250.647C144.276 250.647 145.505 245.802 145.505 245.802L153.194 183.825L154.193 175.777C154.193 175.777 152.237 166.082 139.535 163.913C126.833 161.744 123.249 171.259 123.249 171.259H123.255Z" fill="#414042"/>
<path d="M153.2 183.825C153.2 183.825 151.398 186.477 148.065 187.145L142.797 242.429L146.012 241.674L153.2 183.83V183.825Z" fill="#231F20"/>
<path d="M176.082 295.522H176.088C178.776 295.522 180.956 297.598 180.956 300.158V308.015C180.956 310.576 178.776 312.651 176.088 312.651H176.082C173.393 312.651 171.214 310.576 171.214 308.015V300.158C171.214 297.598 173.393 295.522 176.082 295.522Z" fill="#F8A38E"/>
<path d="M176.089 299.113C176.089 299.113 173.975 301.18 173.775 307.136H171.215L171.338 298.991L176.084 299.118L176.089 299.113Z" fill="#F6927F"/>
<path d="M183.671 240.792L182.468 299.947H170.642C170.642 299.947 162.875 264.028 163.28 240.792C163.28 240.792 163.945 233.184 173.468 233.184C183.671 233.184 183.671 240.792 183.671 240.792Z" fill="#414042"/>
<path d="M167.734 234.437L173.468 299.948H170.642C170.642 299.948 162.143 255.157 163.265 239.618C163.265 239.618 164.514 235.982 167.734 234.437Z" fill="#231F20"/>
<path d="M132.815 313.526H132.809C130.121 313.526 127.941 311.451 127.941 308.891V301.033C127.941 298.473 130.121 296.398 132.809 296.398H132.815C135.504 296.398 137.683 298.473 137.683 301.033V308.891C137.683 311.451 135.504 313.526 132.815 313.526Z" fill="#F8A38E"/>
<path d="M125.614 241.669L126.817 300.824H138.643C138.643 300.824 146.41 264.905 146.005 241.669C146.005 241.669 145.34 234.061 135.817 234.061C125.614 234.061 125.614 241.669 125.614 241.669Z" fill="#414042"/>
<path d="M143.35 236.585L134.892 300.824H138.645C138.645 300.824 146.365 265.865 146.007 241.669C146.007 241.669 145.536 238.32 143.35 236.585Z" fill="#231F20"/>
<path d="M132.818 300.951C132.818 300.951 130.703 303.018 130.504 308.974H127.944L128.067 300.829L132.813 300.956L132.818 300.951Z" fill="#F6927F"/>
<path d="M171.218 304.963L156.688 313.912C153.591 315.214 154.272 321.038 157.538 321.126L182.839 321.804C185.071 321.862 186.633 319.016 185.824 316.369L181.329 306.723C181.329 306.723 181.948 308.268 178.539 308.268C175.129 308.268 171.223 304.968 171.223 304.968L171.218 304.963Z" fill="#D1D3D4"/>
<path d="M185.889 316.618C185.889 316.618 184.486 320.59 181.982 320.634C179.479 320.678 160.434 320.634 158.811 318.587C157.188 316.54 157.05 313.693 159.901 311.934L156.778 313.649C152.903 315.779 153.681 321.2 158.156 321.258L183.488 321.804C183.488 321.804 186.989 320.42 185.889 316.618Z" fill="#A7A9AC"/>
<path d="M128.001 305.504L103.626 313.157C99.4794 314.458 100.396 320.283 104.763 320.371L138.635 321.048C141.619 321.107 143.713 318.26 142.633 315.613L138.512 305.509C138.512 305.509 137.437 307.512 132.875 307.512C128.313 307.512 128.006 305.509 128.006 305.509L128.001 305.504Z" fill="#D1D3D4"/>
<path d="M142.516 315.863C142.516 315.863 140.668 319.835 137.386 319.879C134.105 319.923 109.08 319.879 106.95 317.832C104.82 315.785 104.825 313.367 108.573 311.607L104.277 312.894C98.8711 314.488 100.32 321.049 106.085 320.503L139.362 321.049C139.362 321.049 143.96 319.665 142.521 315.863H142.516Z" fill="#A7A9AC"/>
<path d="M105.207 68.6815L72.3376 70.7828C72.3376 70.7828 68.0899 72.9485 68.2723 78.8373C68.4547 84.7261 73.0517 85.7925 73.0517 85.7925L104.362 83.8895L105.207 68.6815Z" fill="#F8A38E"/>
<path d="M101.903 78.1061L68.529 81.1395C68.529 81.1395 66.0454 86.2812 72.9761 85.7767C75.7482 85.5739 103.222 83.9297 103.222 83.9297L101.903 78.1061Z" fill="#F6927F"/>
<path d="M134.842 79.3961C132.599 83.1033 129.2 84.8438 125.9 84.9328L102.265 87.478L99.9175 83.955L99.4277 68.3503L123.296 66.1021L124.657 65.9277L124.672 65.9248C131.027 65.558 137.163 71.2296 134.847 79.3951L134.842 79.3961Z" fill="#E9F5F1"/>
<path d="M135.392 76.2529C135.392 76.2529 130.76 71.9925 126.398 69.7415C123.039 68.0119 99.5324 71.3523 99.5324 71.3523L99.4384 68.369L124.711 65.9421C124.711 65.9421 135.217 65.6853 135.392 76.2529Z" fill="#C7E5DA"/>
<path d="M152.866 162.243C136.017 162.408 119.798 158.065 119.798 158.065C118.718 148.185 122.865 119.388 122.865 119.388C122.865 119.388 117.699 79.0183 121.559 69.8253C125.419 60.6323 143.922 56.2892 143.922 56.2892C145.57 60.3739 151.627 60.5933 151.627 60.5933H152.687H153.747C153.747 60.5933 159.803 60.3739 161.452 56.2892C161.452 56.2892 185.058 55.9139 188.918 65.1069C192.779 74.2999 190.762 89.9027 190.762 89.9027C190.762 89.9027 192.195 128.249 188.11 161.326C188.11 161.326 169.715 162.413 152.866 162.248" fill="#E9F5F1"/>
<path d="M149.922 93.3973V86.5586H164.523V100.309H157.181V93.3973H149.922Z" fill="#106888"/>
<path d="M149.917 100.31H157.259V107.299H149.917V100.31Z" fill="#8B4593"/>
<path d="M135.4 100.31H142.741V107.299H135.4V100.31Z" fill="#F3CD13"/>
<path fill-rule="evenodd" clip-rule="evenodd" d="M149.923 79.4961H135.399V86.4859H128.216V100.314H135.399V93.4757H142.74V86.4859H149.923V79.4961Z" fill="#189A73"/>
<path d="M146.988 59.3989L119.065 69.3084L126.837 63.7127C126.837 63.7127 137.219 56.874 143.911 56.2891C143.911 56.2891 144.561 58.2437 146.982 59.3989H146.988Z" fill="#C7E5DA"/>
<path d="M122.857 119.388C126.246 147.956 122.693 156.979 137.525 161.322L119.79 158.061C119.79 158.061 119.949 124.491 122.857 119.383" fill="#C7E5DA"/>
<path d="M36.4724 71.2855C36.4724 71.2855 36.5885 70.0461 34.3259 68.6524C32.0633 67.2587 16.7773 57.0594 16.186 60.1506C16.186 60.1506 15.822 60.9578 22.5267 64.7334C22.5267 64.7334 24.3577 66.3902 21.0788 65.7943C17.8 65.1984 6.14299 62.0417 5.61572 64.0694C5.08845 66.097 18.1916 67.8718 17.9625 68.937C17.7334 70.0022 3.68354 67.0154 3.09616 68.7715C2.50878 70.5277 17.2448 72.2568 17.0772 73.2482C16.9121 74.2438 4.36104 71.5627 4.41404 73.9843C4.46704 76.4059 16.3494 75.5287 16.4513 76.37C16.5531 77.2112 7.95079 76.7464 7.94396 78.3372C7.93712 79.928 23.5521 81.4271 30.4354 77.5127C30.4354 77.5127 34.2671 78.6026 34.9812 77.0526C35.6953 75.5025 36.4706 71.2922 36.4706 71.2922L36.4724 71.2855Z" fill="#F8A38E"/>
<path d="M265 95.9252C265 95.9252 264.931 94.6829 267.243 93.3708C269.554 92.0588 285.213 82.3859 285.69 85.4906C285.69 85.4906 286.025 86.3095 279.181 89.8553C279.181 89.8553 277.287 91.4447 280.586 90.9636C283.885 90.4826 295.654 87.7202 296.103 89.766C296.552 91.8118 283.391 93.1391 283.584 94.2078C283.777 95.2765 297.928 92.7743 298.45 94.5508C298.973 96.3274 284.179 97.547 284.31 98.5476C284.44 99.5482 297.081 97.2982 296.935 99.7183C296.789 102.138 284.944 100.857 284.814 101.693C284.683 102.529 293.299 102.36 293.24 103.95C293.182 105.539 277.53 106.504 270.794 102.356C270.794 102.356 266.923 103.316 266.266 101.741C265.608 100.165 264.998 95.9347 264.998 95.9347L265 95.9252Z" fill="#F8A38E"/>
<path d="M272.022 98.9451C272.959 95.3291 271.411 94.1699 267.154 92.8606L231.874 82.3743C227.721 81.4414 225.408 84.3621 224.472 87.9781C223.536 91.5941 224.859 95.9745 229.013 96.9074L265.222 102.098C269.735 102.578 271.086 102.561 272.022 98.9451Z" fill="#F8A38E"/>
<path d="M234.09 93.0763C234.09 93.0763 266.031 100.258 266.612 101.273C267.193 102.288 265.233 102.111 265.233 102.111L229.047 96.9352L234.09 93.0763Z" fill="#F6927F"/>
<path d="M232.312 86.8066L270.946 94.1174L231.868 82.3641C231.868 82.3641 229.622 81.4936 227.282 82.9854C227.282 82.9854 224.942 84.4771 227.282 82.9854L232.312 86.8066Z" fill="#F9B5A9"/>
<path d="M29.1316 72.2604C29.6501 68.5515 31.5329 68.028 36.0017 68.3365L72.8637 71.2613C77.0878 71.8877 78.1223 75.4438 77.6011 79.1484C77.0825 82.8572 74.1687 86.461 69.9403 85.8369L34.2477 77.6396C29.8652 76.4621 28.6147 75.9626 29.1333 72.2537L29.1316 72.2604Z" fill="#F8A38E"/>
<path d="M67.9587 82.2455C67.9587 82.2455 34.1663 75.6385 33.2377 76.3806C32.3091 77.1227 34.1997 77.6601 34.1997 77.6601L70.2141 85.8916L67.9614 82.2497L67.9587 82.2455Z" fill="#F6927F"/>
<path d="M203.096 71.4138L233.842 82.8021C233.842 82.8021 237.247 86.0768 235.306 91.6299C233.364 97.183 228.656 96.885 228.656 96.885L199.338 86.1306L203.096 71.4138Z" fill="#F8A38E"/>
<path d="M203.398 81.3551L233.566 94.7976C233.566 94.7976 231.293 97.8359 228.696 96.8845C226.1 95.9332 200.402 86.4975 200.402 86.4975L203.398 81.3551Z" fill="#F6927F"/>
<path d="M206.641 77.4044L235.888 88.8873L235.973 88.119C235.929 86.6094 235.072 84.038 233.942 82.8878L233.557 82.6854L207.336 73.2719L206.641 77.4044Z" fill="#F9B5A9"/>
<path d="M175.294 71.0837C176.184 75.2834 178.82 77.9887 181.91 79.1049L203.417 88.9122L206.805 86.3271L212.439 71.7723L190.615 62.1718L189.388 61.5834L189.376 61.574C183.488 59.2373 175.805 62.6601 175.294 71.0837Z" fill="#E9F5F1"/>
<path d="M248.026 21.8575L249.255 22.447C248.854 22.2209 248.447 22.0229 248.026 21.8575Z" fill="white"/>
<path d="M175.303 71.048L177.291 73.0742C179.694 75.523 182.647 77.419 185.931 78.6249L206.853 86.3117L203.461 88.9007L180.436 78.3897C180.436 78.3897 175.505 75.0663 175.299 71.0448L175.303 71.048Z" fill="#C7E5DA"/>
<path d="M176.177 67.6706C176.177 67.6706 181.542 62.7501 184.953 63.2647C188.364 63.7793 211.552 74.0566 211.552 74.0566L212.432 71.7766L189.36 61.5796C189.36 61.5796 179.942 58.4156 176.177 67.6706Z" fill="#F5FBF8"/>
<path d="M279.521 97.2427C268.94 98.0551 197.195 103.092 152.553 103.092C118.508 103.092 76.2706 91.6373 25.33 71.165" stroke="#FF6464" stroke-width="25" stroke-linecap="round"/>
</svg>
